<?xml version="1.0" encoding="UTF-8" standalone="no"?>
<!-- Created with Inkscape (http://www.inkscape.org/) -->

<svg
   width="200mm"
   height="200mm"
   viewBox="0 0 200 200"
   version="1.1"
   id="svg5"
   xml:space="preserve"
   inkscape:export-filename="bitmap.png"
   inkscape:export-xdpi="10.37"
   inkscape:export-ydpi="10.37"
   inkscape:version="1.2.2 (b0a8486541, 2022-12-01)"
   sodipodi:docname="vacuum.svg"
   xmlns:inkscape="http://www.inkscape.org/namespaces/inkscape"
   xmlns:sodipodi="http://sodipodi.sourceforge.net/DTD/sodipodi-0.dtd"
   xmlns="http://www.w3.org/2000/svg"
   xmlns:svg="http://www.w3.org/2000/svg"><sodipodi:namedview
     id="namedview7"
     pagecolor="#ffffff"
     bordercolor="#666666"
     borderopacity="1.0"
     inkscape:showpageshadow="2"
     inkscape:pageopacity="0.0"
     inkscape:pagecheckerboard="0"
     inkscape:deskcolor="#d1d1d1"
     inkscape:document-units="mm"
     showgrid="false"
     inkscape:zoom="0.89263468"
     inkscape:cx="259.34462"
     inkscape:cy="561.25984"
     inkscape:window-width="3840"
     inkscape:window-height="2005"
     inkscape:window-x="1920"
     inkscape:window-y="27"
     inkscape:window-maximized="1"
     inkscape:current-layer="layer1" /><defs
     id="defs2" /><g
     inkscape:label="Layer 1"
     inkscape:groupmode="layer"
     id="layer1"><path
       style="fill:#000000;stroke-width:0.896808"
       d="m 85.195125,167.3948 c -0.256531,-0.66851 -0.344757,-3.79611 -0.196056,-6.95026 l 0.270362,-5.73479 3.695097,-0.49324 c 4.701168,-0.62753 7.740769,-2.63371 11.190952,-7.38617 l 2.74354,-3.7791 -4.768518,-0.27847 c -2.62268,-0.15315 -5.424674,-0.87228 -6.226652,-1.59807 -0.801978,-0.72578 -2.421022,-4.53319 -3.597876,-8.46092 l -2.139735,-7.14131 -5.156646,-0.004 -5.156644,-0.004 v 7.1104 c 0,5.26827 -0.36511,7.47551 -1.409271,8.51969 -1.199437,1.19943 -4.479694,1.40926 -22.030751,1.40926 -12.499905,0 -21.304663,-0.36563 -22.356141,-0.92836 -1.670361,-0.89395 -1.734659,-2.25022 -1.734659,-36.58975 0,-26.540924 0.275233,-35.93665 1.076169,-36.737584 0.758147,-0.758146 5.897423,-1.076172 17.390966,-1.076172 H 63.104059 L 63.462258,57.182809 C 64.011904,41.701476 67.162444,37.687026 78.767573,37.6806 c 5.284868,-0.0027 6.053455,-0.21344 6.053455,-1.657981 0,-0.910041 0.738013,-2.322513 1.640029,-3.138823 1.470629,-1.330909 5.485781,-1.484213 38.872143,-1.484213 43.26219,0 40.20054,-0.70158 40.20054,9.212049 0,9.251586 2.44002,8.724106 -40.35635,8.724106 -31.466272,0 -36.638778,-0.188228 -38.363201,-1.396062 -1.096239,-0.767834 -1.993161,-2.180306 -1.993161,-3.138823 0,-1.547072 -0.65457,-1.742761 -5.829252,-1.742761 -9.172682,0 -10.570642,2.166111 -10.128615,15.694129 0.256343,7.845273 0.326505,8.079965 2.505748,8.381407 3.965037,0.548477 4.48404,1.67228 4.48404,9.709324 v 7.557811 l 5.088891,-0.268959 5.088891,-0.268959 1.922708,-6.277646 c 1.057488,-3.452716 2.413759,-7.185675 3.013932,-8.295484 l 1.091226,-2.017811 h 35.817733 35.81774 l 1.44746,2.799076 c 2.68079,5.184071 5.86584,19.877915 6.39141,29.486007 0.61472,11.237863 -0.73382,22.523663 -3.89678,32.611983 -2.93928,9.37488 -3.78844,10.28586 -9.8969,10.61727 l -4.9016,0.26593 2.74301,3.7791 c 3.44939,4.7523 6.48907,6.75861 11.19042,7.38617 l 3.6951,0.49324 0.26191,6.95025 0.26195,6.95028 h -42.66426 c -35.072412,0 -42.747244,-0.21629 -43.130665,-1.21549 z m 80.335245,-5.73479 c -0.001,-1.01161 -1.41793,-2.1511 -3.98337,-3.20604 -4.3965,-1.8079 -10.45789,-7.83268 -12.78057,-12.70339 l -1.50104,-3.14774 h -19.39758 -19.39758 l -1.50104,3.14774 c -2.32269,4.87071 -8.384063,10.89549 -12.780573,12.70339 -2.565447,1.05494 -3.981213,2.19443 -3.98338,3.20604 -0.0031,1.46983 2.386846,1.56942 37.662573,1.56942 35.27573,0 37.66572,-0.0995 37.66256,-1.56942 z M 59.710405,134.08317 v -3.13883 H 46.706689 33.702974 v 3.13883 3.13883 H 46.706689 59.710405 Z M 70.4721,128.70233 v -8.51969 l 6.950262,-1e-4 6.950262,-1e-4 V 104.71261 89.242766 h -6.72606 -6.72606 l -0.257855,-8.29547 -0.257855,-8.29547 h -2.656771 -2.65677 V 104.93691 137.222 h 2.690424 2.690423 z m 91.18367,5.15664 c 0.77623,-1.84966 2.20921,-7.19689 3.18439,-11.8827 1.45752,-7.00359 1.68622,-10.67412 1.28517,-20.62659 -0.44799,-11.116879 -1.14256,-15.084383 -4.67084,-26.680043 l -0.61397,-2.017811 H 127.89385 94.947198 l -1.893605,6.501859 c -4.495152,15.434494 -4.895781,32.637715 -1.100673,47.263385 3.1392,12.09791 -1.167845,10.80493 35.9922,10.80493 h 32.29929 z M 59.710405,122.42467 v -3.13883 H 46.706689 33.702974 v 3.13883 3.13882 h 13.003715 13.003716 z m 0,-11.65851 v -3.13882 H 46.706689 33.702974 v 3.13882 3.13884 h 13.003715 13.003716 z m 0,-11.658498 V 95.968825 H 46.706689 33.702974 v 3.138837 3.138828 h 13.003715 13.003716 z m 0,-11.658507 V 84.310332 H 46.706689 33.702974 v 3.138823 3.138823 h 13.003715 13.003716 z m 0,-11.658506 V 72.651826 H 46.706689 33.702974 v 3.138823 3.138836 H 46.706689 59.710405 Z M 161.04971,40.366743 V 36.779505 H 125.17739 89.305068 v 3.587238 3.587223 h 35.872322 35.87232 z"
       id="path302" /></g></svg>
